<svg version="1.2" xmlns="http://www.w3.org/2000/svg" viewBox="0 0 100 50" width="100" height="50">
	<title>php-logo-svg</title>
	<style>
		.s0 { fill: #e8881d } 
	</style>
	<path id="Layer" fill-rule="evenodd" class="s0" d="m7.6 11.1h14.2q6.2 0.1 9 3.6 2.9 3.6 1.9 9.7-0.4 2.8-1.6 5.5-1.3 2.7-3.4 4.9-2.7 2.8-5.7 3.5-3 0.8-6.3 0.8h-6.3l-2 10h-7.4zm6.1 6.1q0.1 0 0.1 0zm-3.1 15.8q0.3 0.1 0.6 0.1 0.4 0 0.8 0 5 0 8.4-1 3.4-1.2 4.6-7.8 0.9-5.5-1.9-6.4-2.8-0.8-7.1-0.8-0.6 0.1-1.2 0.1-0.5 0-1.1 0z"/>
	<path id="Layer" class="s0" d="m41.1 1h7.3l-2.1 10.1h6.6q5.4 0.1 8.1 2.2 2.7 2.2 1.6 8.1l-3.6 17.7h-7.4l3.4-16.9q0.5-2.7-0.3-3.8-0.9-1.1-3.7-1.1h-5.9l-4.3 21.8h-7.3z"/>
	<path id="Layer" fill-rule="evenodd" class="s0" d="m70.4 11.1h14.2q6.3 0.1 9.1 3.6 2.8 3.6 1.8 9.7-0.3 2.8-1.6 5.5-1.2 2.7-3.4 4.9-2.7 2.8-5.7 3.5-3 0.8-6.2 0.8h-6.4l-2 10h-7.4zm6.2 6.1q0 0 0 0zm-3.1 15.8q0.3 0.1 0.6 0.1 0.4 0 0.8 0 5.1 0 8.5-1 3.4-1.2 4.5-7.8 1-5.5-1.9-6.4-2.8-0.8-7-0.8-0.7 0.1-1.3 0.1-0.5 0-1 0z"/>
</svg>